<svg width="24" height="24" viewBox="0 0 24 24" fill="none" xmlns="http://www.w3.org/2000/svg">
<path d="M7 18.87H12.796C15.982 18.87 17.476 17.592 17.476 15.288V15.216C17.476 13.434 16.486 12.48 14.902 12.21C16.342 11.832 17.08 10.878 17.08 9.438V9.366C17.08 7.368 15.784 6 12.742 6H7V18.87ZM10.6 11.112V8.448H12.004C13.12 8.448 13.588 8.844 13.588 9.726V9.798C13.588 10.716 13.156 11.112 12.004 11.112H10.6ZM10.6 16.404V13.362H12.022C13.318 13.362 13.84 13.866 13.84 14.838V14.91C13.84 15.864 13.3 16.404 12.13 16.404H10.6Z" fill="#1A1A1A"/>
</svg>
