<svg width="24" height="24" viewBox="0 0 24 24" fill="none" xmlns="http://www.w3.org/2000/svg">
<path d="M4.5 7C5.88071 7 7 5.88071 7 4.5C7 3.11929 5.88071 2 4.5 2C3.11929 2 2 3.11929 2 4.5C2 5.88071 3.11929 7 4.5 7Z" stroke="#1A1A1A" stroke-width="1.5" stroke-miterlimit="10"/>
<path d="M19.5 7C20.8807 7 22 5.88071 22 4.5C22 3.11929 20.8807 2 19.5 2C18.1193 2 17 3.11929 17 4.5C17 5.88071 18.1193 7 19.5 7Z" stroke="#1A1A1A" stroke-width="1.5" stroke-miterlimit="10"/>
<path d="M10 13.838C7.788 13.088 6.883 10 4 10C3.20435 10 2.44129 10.3161 1.87868 10.8787C1.31607 11.4413 1 12.2044 1 13V22H7V16" stroke="#1A1A1A" stroke-width="1.5" stroke-miterlimit="10" stroke-linecap="square"/>
<path d="M14 13.838C16.212 13.088 17.117 10 20 10C20.7956 10 21.5587 10.3161 22.1213 10.8787C22.6839 11.4413 23 12.2044 23 13V22H17V16" stroke="#1A1A1A" stroke-width="1.5" stroke-miterlimit="10" stroke-linecap="square"/>
</svg>
