<svg width="24" height="24" viewBox="0 0 24 24" fill="none" xmlns="http://www.w3.org/2000/svg">
<path d="M4 7.888C5.35 7.888 6.444 6.794 6.444 5.444C6.444 4.094 5.35 3 4 3C2.65 3 1.556 4.094 1.556 5.444C1.556 6.794 2.65 7.888 4 7.888ZM4 8.388C1.791 8.388 0 10.179 0 12.388V14.556C0 14.832 0.224 15.056 0.5 15.056H1.345C1.603 15.055 1.819 15.25 1.845 15.506L2.339 20.439C2.365 20.695 2.581 20.89 2.839 20.889H5.167C5.425 20.89 5.641 20.695 5.667 20.439L6.161 15.506C6.187 15.25 6.403 15.055 6.661 15.056H7.5C7.776 15.056 8 14.832 8 14.556V12.388C8 10.179 6.209 8.388 4 8.388ZM20 7.888C21.35 7.888 22.444 6.794 22.444 5.444C22.444 4.094 21.35 3 20 3C18.65 3 17.556 4.094 17.556 5.444C17.556 6.794 18.65 7.888 20 7.888ZM20 8.388C17.791 8.388 16 10.179 16 12.388V14.556C16 14.832 16.224 15.056 16.5 15.056H17.345C17.603 15.055 17.819 15.25 17.845 15.506L18.339 20.439C18.365 20.695 18.581 20.89 18.839 20.889H21.173C21.431 20.89 21.647 20.695 21.673 20.439L22.167 15.506C22.193 15.25 22.409 15.055 22.667 15.056H23.5C23.776 15.056 24 14.832 24 14.556V12.388C24 10.179 22.209 8.388 20 8.388ZM9.892 8.361C9.892 9.48 10.8 10.388 11.919 10.388C13.038 10.388 13.946 9.48 13.946 8.361C13.946 7.242 13.038 6.334 11.919 6.334C10.8 6.335 9.893 7.242 9.892 8.361ZM11.919 10.888C10.317 10.888 9.019 12.186 9.019 13.788V15.547C9.019 15.823 9.243 16.047 9.519 16.047H10.019C10.277 16.046 10.493 16.241 10.519 16.497L10.913 20.435C10.939 20.691 11.155 20.886 11.413 20.885H12.444C12.702 20.886 12.918 20.691 12.944 20.435L13.338 16.497C13.364 16.241 13.58 16.046 13.838 16.047H14.338C14.614 16.047 14.838 15.823 14.838 15.547V13.788C14.838 12.186 13.54 10.888 11.938 10.888C11.932 10.888 11.925 10.888 11.919 10.888Z" fill="#1A1A1A"/>
</svg>
