<svg width="124" height="48" viewBox="0 0 124 48" fill="none" xmlns="http://www.w3.org/2000/svg">
<g clip-path="url(#clip0_4468_477)">
<path fill-rule="evenodd" clip-rule="evenodd" d="M0 47.4725V19.9012L20.0048 0.621948L40.0096 19.9012V47.4725H0ZM5.00983 22.0087V42.4627H34.9997V22.0087L20.0048 7.56661L5.00983 22.0087ZM10.0197 37.4528V24.1509L20.0048 14.5113L30.0244 24.1509V37.4528H10.0197ZM14.9949 26.2585V32.443H25.0146V26.2585L20.0048 21.4559L14.9949 26.2585Z" fill="#1A1A1A"/>
<path fill-rule="evenodd" clip-rule="evenodd" d="M64.4363 8.77584C64.4363 7.49747 65.1273 6.87556 66.1293 6.87556C67.1312 6.87556 67.5458 7.42837 67.5458 8.56854V14.373H70.9663V7.87753C70.9663 5.32079 69.6189 4.11152 67.684 4.11152C66.0256 4.11152 64.92 4.94073 64.4017 5.97725V0H60.9812V14.373H64.4017V8.77584H64.4363ZM56.5586 14.373H52.6199V3.73146H49.0957V0.725564H60.1173V3.73146H56.5586V14.373ZM69.0661 37.211C65.9565 37.211 63.5725 39.2494 63.5725 42.4626V42.6008C63.5725 45.8141 65.9565 47.7143 69.0315 47.7143C72.1065 47.7143 74.4905 45.7795 74.4905 42.5317V42.3935C74.4905 39.1803 72.1411 37.211 69.0661 37.211ZM71.0354 42.5317C71.0354 44.1902 70.3444 45.1576 69.0661 45.1576C67.7531 45.1576 67.0621 44.2247 67.0621 42.4972V42.359C67.0621 40.666 67.7531 39.7677 69.0661 39.7677C70.379 39.7677 71.0354 40.7006 71.0354 42.3935V42.5317ZM91.4548 41.0461C90.2455 40.9079 89.7618 40.7006 89.7618 40.2169C89.7618 39.7677 90.1418 39.4222 90.902 39.4222C91.6966 39.4222 92.0421 39.7332 92.1803 40.4242H95.2899C95.048 38.0402 93.355 37.211 90.8674 37.211C88.5525 37.211 86.5831 38.282 86.5831 40.4933C86.5831 42.5663 87.7233 43.361 90.3837 43.7065C91.7657 43.9138 92.2494 44.1211 92.2494 44.6048C92.2494 45.0885 91.8694 45.434 91.0402 45.434C90.0727 45.434 89.7272 45.0194 89.6236 44.2938H86.4795C86.5486 46.5051 88.207 47.6798 91.0747 47.6798C93.8388 47.6798 95.6008 46.6087 95.6008 44.2247C95.5663 42.1171 94.2188 41.3916 91.4548 41.0461ZM58.4242 39.0076H53.9327V33.7904H49.9939V47.4725H53.9327V42.0826H58.4242V47.4725H62.363V33.7904H58.4242V39.0076ZM80.364 45.123C81.4005 45.123 82.0569 44.5011 82.0569 43.2228V37.4874H85.4774V47.4725H82.0569V45.9177C81.5041 46.9197 80.5367 47.6798 78.8783 47.6798C76.9435 47.6798 75.5269 46.5051 75.5269 43.9829V37.4528H78.9474V43.4301C78.9474 44.5702 79.3965 45.123 80.364 45.123ZM119.579 20.8685V22.2851C118.992 21.2831 118.059 20.5921 116.469 20.5921C114.12 20.5921 112.22 22.4579 112.22 25.3947V25.5674C112.22 28.6424 114.12 30.3699 116.469 30.3699C117.955 30.3699 119.061 29.5062 119.579 28.5388V30.059C119.579 31.3028 118.957 32.1666 117.471 32.1666C116.228 32.1666 115.778 31.5792 115.64 30.8537H112.254C112.531 33.134 114.085 34.5506 117.506 34.5506C121.065 34.5506 123.034 32.9958 123.034 29.9899V20.8685H119.579ZM119.683 25.5329C119.683 26.9494 118.922 27.8132 117.679 27.8132C116.469 27.8132 115.744 26.9494 115.744 25.5674V25.4292C115.744 24.0472 116.435 23.1489 117.713 23.1489C118.992 23.1489 119.683 24.0126 119.683 25.3947V25.5329ZM96.2916 42.4626C96.2916 39.2494 98.7102 37.211 101.716 37.211C104.446 37.211 106.795 38.7657 106.83 42.3935V43.2919H99.7812C99.8503 44.6048 100.645 45.3649 101.854 45.3649C102.96 45.3649 103.444 44.8466 103.582 44.1902H106.795C106.484 46.436 104.722 47.7143 101.716 47.7143C98.572 47.7143 96.2916 45.8832 96.2916 42.6008V42.4626ZM101.716 39.4567C100.68 39.4567 99.9885 40.1132 99.8158 41.3225H103.478C103.409 40.1132 102.822 39.4567 101.716 39.4567ZM108.004 20.6612C106.346 20.6612 105.24 21.4904 104.722 22.527V20.9376H101.301V30.9227H104.722V25.3256C104.722 24.0472 105.413 23.4253 106.415 23.4253C107.417 23.4253 107.832 23.9781 107.832 25.1183V30.9227H111.252V24.4272C111.252 21.8705 109.939 20.6612 108.004 20.6612ZM93.6661 31.1646C91.4203 31.1646 90.1419 30.059 90.1419 27.7096V23.2525H88.7944V20.9376H90.1765V18.8646H93.597V20.9376H99.9888V30.9228H96.5683V23.2525H93.597V27.3986C93.597 28.1242 93.9425 28.4351 94.5989 28.4351C94.8753 28.4351 95.0826 28.4006 95.2899 28.3315V30.9573C94.8408 31.061 94.3225 31.1646 93.6661 31.1646ZM77.1163 25.8093C77.1163 22.216 74.7668 20.6612 72.0373 20.6612C69.0314 20.6612 66.6129 22.6997 66.6129 25.9129V26.0511C66.6129 29.3334 68.8932 31.1646 72.0373 31.1646C75.0432 31.1646 76.8053 29.8862 77.1163 27.6404H73.9031C73.7649 28.2969 73.2812 28.8152 72.1755 28.8152C70.9663 28.8152 70.1716 28.0551 70.1025 26.7421H77.1508V25.8093H77.1163ZM70.1025 24.8073C70.2062 23.5635 70.9663 22.8725 72.0028 22.8725C73.1084 22.8725 73.7649 23.5635 73.7649 24.8073H70.1025ZM82.5059 11.0907C82.195 13.3365 80.4329 14.6149 77.427 14.6149C74.2829 14.6149 72.0026 12.7837 72.0371 9.53596V9.39775C72.0371 6.18455 74.4557 4.14607 77.4616 4.14607C80.1911 4.14607 82.5405 5.70084 82.5405 9.2941V10.1924H75.4922C75.5613 11.5053 76.3559 12.2654 77.5652 12.2654C78.6708 12.2654 79.1545 11.7472 79.2927 11.0907H82.5059ZM79.1545 8.25758C79.0854 7.04832 78.4981 6.39185 77.3925 6.39185C76.3559 6.39185 75.6649 7.04832 75.4922 8.25758H79.1545ZM98.2266 19.9702C99.2976 19.9702 100.127 19.2101 100.127 18.2081C100.127 17.2062 99.2976 16.4461 98.2266 16.4461C97.1555 16.4461 96.3608 17.2062 96.3608 18.2081C96.3263 19.2447 97.1555 19.9702 98.2266 19.9702ZM78.049 26.0511V25.9129C78.049 22.6997 80.433 20.6612 83.508 20.6958C86.2375 20.6958 88.5869 22.2506 88.5869 25.8438V26.7421H81.5386C81.6077 28.0551 82.4024 28.8152 83.6116 28.8152C84.7173 28.8152 85.201 28.2969 85.3392 27.6404H88.5524C88.2414 29.8862 86.4793 31.1646 83.4734 31.1646C80.3293 31.1646 78.049 29.3334 78.049 26.0511ZM85.2355 24.7728C85.1664 23.5635 84.5791 22.907 83.4734 22.907C82.4369 22.907 81.7114 23.598 81.5386 24.7728H85.2355ZM49.9939 17.2753H55.1074L57.7332 24.5309L60.3591 17.2753H65.3689V30.9228H61.4647V22.4233L58.1133 30.9228H56.8003L53.518 22.4233V30.9228H49.9939V17.2753Z" fill="#1A1A1A"/>
</g>
<defs>
<clipPath id="clip0_4468_477">
<rect width="123.826" height="48" fill="white"/>
</clipPath>
</defs>
</svg>
