<svg width="24" height="24" viewBox="0 0 24 24" fill="none" xmlns="http://www.w3.org/2000/svg">
<path d="M4 12.5V22.5H13" stroke="#1A1A1A" stroke-width="1.5" stroke-miterlimit="10"/>
<path d="M20.86 8.749L12 1.5L1 10.5" stroke="#1A1A1A" stroke-width="1.5" stroke-miterlimit="10"/>
<path d="M23 15.317C23 17.683 19 21.5 19 21.5C19 21.5 15 17.683 15 15.317C15.0069 14.8021 15.1164 14.2939 15.3222 13.8219C15.5279 13.3499 15.8258 12.9237 16.1983 12.5683C16.5707 12.2128 17.0104 11.9353 17.4915 11.7518C17.9726 11.5684 18.4854 11.4828 19 11.5C19.5146 11.4828 20.0274 11.5684 20.5085 11.7518C20.9896 11.9353 21.4293 12.2128 21.8017 12.5683C22.1742 12.9237 22.4721 13.3499 22.6778 13.8219C22.8836 14.2939 22.9931 14.8021 23 15.317V15.317Z" stroke="#1A1A1A" stroke-width="1.5" stroke-miterlimit="10"/>
<path d="M19 16.5C19.5523 16.5 20 16.0523 20 15.5C20 14.9477 19.5523 14.5 19 14.5C18.4477 14.5 18 14.9477 18 15.5C18 16.0523 18.4477 16.5 19 16.5Z" fill="#1A1A1A"/>
</svg>
