<svg width="16" height="16" viewBox="0 0 16 16" fill="none" xmlns="http://www.w3.org/2000/svg">
<path d="M14.236 10.9914C13.344 10.6541 12.7474 9.84406 12.68 8.87806C12.614 7.93673 13.0754 7.10073 13.914 6.6414L14.6114 6.2594L14.1134 5.6394C13.2767 4.5974 12.0794 3.97473 10.9107 3.97473C10.1007 3.97473 9.53869 4.18673 9.08736 4.3574C8.76869 4.47806 8.51736 4.57273 8.24136 4.57273C7.92669 4.57273 7.61602 4.46206 7.25602 4.33406C6.78402 4.16606 6.24936 3.9754 5.56269 3.9754C4.23602 3.9754 2.89802 4.7674 2.07136 6.04073C0.837358 7.94006 1.17602 11.1967 2.87669 13.7847C3.55069 14.8101 4.49536 15.9881 5.83336 16.0001C5.84202 16.0001 5.85069 16.0001 5.85936 16.0001C6.95469 16.0001 7.19469 15.4161 8.25802 15.4094C9.41936 15.4641 9.56602 16.0047 10.6507 15.9974C11.958 15.9854 12.9007 14.8167 13.65 13.6747C14.0927 13.0034 14.264 12.6521 14.6087 11.8894L14.9007 11.2427L14.236 10.9914Z" fill="white"/>
<path d="M10.0666 2.30002C10.5 1.74402 10.8286 0.959349 10.7093 0.157349C10.0013 0.206015 9.17463 0.656015 8.6913 1.24268C8.25263 1.77535 7.89063 2.56468 8.0313 3.33268C8.8033 3.35668 9.60263 2.89535 10.0666 2.30002Z" fill="white"/>
</svg>
