<svg width="24" height="24" viewBox="0 0 24 24" fill="none" xmlns="http://www.w3.org/2000/svg">
<path d="M21.354 16.487C20.016 15.981 19.121 14.766 19.02 13.317C18.921 11.905 19.613 10.651 20.871 9.96204L21.917 9.38904L21.17 8.45904C19.915 6.89604 18.119 5.96204 16.366 5.96204C15.151 5.96204 14.308 6.28004 13.631 6.53604C13.153 6.71704 12.776 6.85904 12.362 6.85904C11.89 6.85904 11.424 6.69304 10.884 6.50104C10.176 6.24904 9.37398 5.96304 8.34398 5.96304C6.35398 5.96304 4.34698 7.15104 3.10698 9.06104C1.25598 11.91 1.76398 16.795 4.31498 20.677C5.32598 22.215 6.74298 23.982 8.74998 24C8.76298 24 8.77598 24 8.78898 24C10.432 24 10.792 23.124 12.387 23.114C14.129 23.196 14.349 24.007 15.976 23.996C17.937 23.978 19.351 22.225 20.475 20.512C21.139 19.505 21.396 18.978 21.913 17.834L22.351 16.864L21.354 16.487Z" fill="#1A1A1A"/>
<path d="M15.1 3.45002C15.75 2.61602 16.243 1.43902 16.064 0.236023C15.002 0.309023 13.762 0.984023 13.037 1.86402C12.379 2.66302 11.836 3.84702 12.047 4.99902C13.205 5.03502 14.404 4.34302 15.1 3.45002Z" fill="#1A1A1A"/>
</svg>
