<svg width="24" height="24" viewBox="0 0 24 24" fill="none" xmlns="http://www.w3.org/2000/svg">
<path d="M7.53918 3.79279H22.5392" stroke="#1A1A1A" stroke-width="1.5" stroke-miterlimit="10" stroke-linecap="square"/>
<path d="M7.53918 11.7928H22.5392" stroke="#1A1A1A" stroke-width="1.5" stroke-miterlimit="10" stroke-linecap="square"/>
<path d="M7.53918 19.7928H22.5392" stroke="#1A1A1A" stroke-width="1.5" stroke-miterlimit="10" stroke-linecap="square"/>
<path d="M1.09863 6.38555V5.67413L1.87304 5.61114C1.99902 5.60235 2.01708 5.56622 2.01708 5.43145V2.28936C2.01708 2.18145 1.99022 2.12725 1.89989 2.1004L1.11669 1.93829L1.21581 1.20001H3.37645V5.43146C3.37645 5.5755 3.38524 5.60236 3.52049 5.61115L4.25877 5.67414V6.38557H1.09863V6.38555Z" fill="#1A1A1A"/>
<path d="M0.630617 14.4532V13.6158L1.83716 12.4366C2.74634 11.5543 3.13355 11.1944 3.13355 10.6812C3.13355 10.3477 2.97144 10.105 2.49439 10.105C1.99878 10.105 1.79175 10.2672 1.79175 10.9063L0.567627 10.7979C0.576417 9.36676 1.66578 9.13239 2.61109 9.13239C4.0066 9.13239 4.50171 9.72663 4.50171 10.5728C4.50171 11.4195 3.91675 11.9776 3.25952 12.6075L2.24195 13.5801H3.56568C3.65552 13.5801 3.69166 13.5621 3.70972 13.4717L3.8357 12.7608H4.7898V14.4532H0.630617V14.4532Z" fill="#1A1A1A"/>
<path d="M3.66894 19.6939C4.43456 19.8111 4.85742 20.2701 4.85742 21.0801C4.85742 22.2686 3.96631 22.8267 2.67871 22.8267C1.76953 22.8267 0.95947 22.503 0.5 21.9986L1.22021 21.2066C1.5625 21.5396 1.94042 21.8004 2.5708 21.8004C3.07519 21.8004 3.50732 21.6207 3.50732 20.9903C3.50732 20.441 3.16503 20.2159 2.60693 20.2159C2.38183 20.2159 2.21093 20.2339 1.94043 20.2789V19.379L2.38184 19.3248C3.02979 19.2437 3.38086 18.9288 3.38086 18.3526C3.38086 18.0103 3.22803 17.7315 2.72363 17.7315C2.23779 17.7315 2.0039 17.8936 2.0039 18.5328L0.7705 18.4244C0.7705 17.002 1.84179 16.7589 2.7871 16.7589C4.17333 16.7589 4.70458 17.2901 4.70458 18.2535C4.70458 19.0098 4.23632 19.4869 3.66894 19.6578V19.6939Z" fill="#1A1A1A"/>
</svg>
