<svg width="24" height="24" viewBox="0 0 24 24" fill="none" xmlns="http://www.w3.org/2000/svg">
<path d="M14.002 21.667L9 20L1 22V4L9 2L15 4L23 2V9" stroke="#1A1A1A" stroke-width="1.5" stroke-miterlimit="10" stroke-linecap="square"/>
<path d="M23 15.817C23 18.183 19 22 19 22C19 22 15 18.183 15 15.817C15 13.374 17.08 12 19 12C20.92 12 23 13.374 23 15.817Z" stroke="#1A1A1A" stroke-width="1.5" stroke-miterlimit="10" stroke-linecap="square"/>
<path d="M19.5 16C19.5 16.2761 19.2761 16.5 19 16.5C18.7239 16.5 18.5 16.2761 18.5 16C18.5 15.7239 18.7239 15.5 19 15.5C19.2761 15.5 19.5 15.7239 19.5 16Z" fill="#1A1A1A" stroke="#1A1A1A"/>
</svg>
