<?xml version="1.0" encoding="utf-8"?>
<!-- Generator: Adobe Illustrator 25.2.1, SVG Export Plug-In . SVG Version: 6.00 Build 0)  -->
<svg version="1.1" xmlns="http://www.w3.org/2000/svg" xmlns:xlink="http://www.w3.org/1999/xlink" x="0px" y="0px"
	 viewBox="0 0 1440 768" style="enable-background:new 0 0 1440 768;" xml:space="preserve">
<style type="text/css">
	.st0{fill:none;}
	.st1{fill:#DADAEF;}
	.st2{fill:none;stroke:#E5E5F4;stroke-width:12;}
	.st3{fill:#E5E5F4;}
	.st4{fill:#AFAFDD;}
	.st5{fill:#FFFFFF;}
</style>
<g id="Layer_1">
	<rect class="st0" width="1440" height="768"/>
	<rect class="st1" width="1440" height="768"/>
	<g>
		<path class="st2" d="M559,562l25,87L199,979"/>
		<path class="st2" d="M1330.6,903.5L1251,560L788,452L-40,845"/>
		<path class="st2" d="M975,494l60.4-148.8"/>
		<path class="st2" d="M1125,663l52-120"/>
		<path class="st2" d="M636.9,904.4L1042,98l252-174"/>
		<path class="st2" d="M782,607l173,97v82"/>
		<path class="st2" d="M271-66L394,62l872,44l251,320l-130,376"/>
		<path class="st2" d="M1359,228l-113,52l-98-21"/>
	</g>
	<g>
		<circle class="st3" cx="937" cy="192" r="24"/>
		<circle class="st3" cx="1441" cy="567" r="24"/>
		<circle class="st3" cx="1223" cy="226" r="24"/>
		<circle class="st3" cx="1052" cy="458" r="24"/>
		<circle class="st3" cx="240" cy="770" r="24"/>
		<circle class="st3" cx="1183" cy="639" r="24"/>
	</g>
	<g>
		<path class="st4" d="M929,190.2v10.5h16v-10.5l-8-8.2L929,190.2z"/>
		<path class="st4" d="M1433,565.2v10.5h16v-10.5l-8-8.2L1433,565.2z"/>
		<path class="st4" d="M1215,224.2v10.5h16v-10.5l-8-8.2L1215,224.2z"/>
		<path class="st4" d="M1044,456.2v10.5h16v-10.5l-8-8.2L1044,456.2z"/>
		<path class="st4" d="M232,768.2v10.5h16v-10.5l-8-8.2L232,768.2z"/>
		<path class="st4" d="M1175,637.2v10.5h16v-10.5l-8-8.2L1175,637.2z"/>
	</g>
</g>
<g id="Layer_2">
	<path class="st5" d="M-723.8-548.9V1183H2098V-548.9H-723.8z M1440,768H-0.3V0H1440V768z"/>
</g>
</svg>
