<svg width="47" height="29" viewBox="0 0 47 29" fill="none" xmlns="http://www.w3.org/2000/svg">
<path d="M29.8567 3.10138H17.1475V25.9026H29.8567V3.10138Z" fill="#7A7A7A"/>
<path d="M17.9543 14.5C17.9543 9.87611 20.125 5.75569 23.502 3.10139C21.0288 1.16 17.914 0 14.5249 0C6.50391 0 0 6.49278 0 14.5C0 22.5072 6.50391 29 14.5249 29C17.914 29 21.0288 27.84 23.502 25.8986C20.121 23.2443 17.9543 19.1239 17.9543 14.5Z" fill="#404040"/>
<path d="M45.6162 23.486V23.0188H45.8058V22.9221H45.3257V23.0188H45.5153V23.486H45.6162ZM46.5482 23.486V22.9221H46.3989L46.2295 23.3088L46.06 22.9221H45.9107V23.486H46.0156V23.0631L46.173 23.4296H46.2819L46.4393 23.0631V23.49H46.5482V23.486Z" fill="white"/>
<path d="M46.9996 14.5C46.9996 22.5072 40.4957 29 32.4747 29C29.0856 29 25.9708 27.84 23.4976 25.8986C26.8746 23.2443 29.0452 19.1239 29.0452 14.5C29.0452 9.87611 26.8786 5.75569 23.5016 3.10139C25.9708 1.16 29.0896 0 32.4747 0C40.4957 0 46.9996 6.49278 46.9996 14.5Z" fill="#B8B8B8"/>
</svg>
