<svg width="24" height="24" viewBox="0 0 24 24" fill="none" xmlns="http://www.w3.org/2000/svg">
<path d="M12 14.5C13.1046 14.5 14 13.6046 14 12.5C14 11.3954 13.1046 10.5 12 10.5C10.8954 10.5 10 11.3954 10 12.5C10 13.6046 10.8954 14.5 12 14.5Z" stroke="black" stroke-width="1.5" stroke-miterlimit="10" stroke-linecap="square"/>
<path d="M3 14.5C4.10457 14.5 5 13.6046 5 12.5C5 11.3954 4.10457 10.5 3 10.5C1.89543 10.5 1 11.3954 1 12.5C1 13.6046 1.89543 14.5 3 14.5Z" stroke="black" stroke-width="1.5" stroke-miterlimit="10" stroke-linecap="square"/>
<path d="M21 14.5C22.1046 14.5 23 13.6046 23 12.5C23 11.3954 22.1046 10.5 21 10.5C19.8954 10.5 19 11.3954 19 12.5C19 13.6046 19.8954 14.5 21 14.5Z" stroke="black" stroke-width="1.5" stroke-miterlimit="10" stroke-linecap="square"/>
</svg>
