<svg width="24" height="24" viewBox="0 0 24 24" fill="none" xmlns="http://www.w3.org/2000/svg">
<path d="M12 23C18.0751 23 23 18.0751 23 12C23 5.92487 18.0751 1 12 1C5.92487 1 1 5.92487 1 12C1 18.0751 5.92487 23 12 23Z" stroke="#1A1A1A" stroke-width="1.5" stroke-miterlimit="10" stroke-linecap="square"/>
<path d="M12.5 18C12.5 18.2761 12.2761 18.5 12 18.5C11.7239 18.5 11.5 18.2761 11.5 18C11.5 17.7239 11.7239 17.5 12 17.5C12.2761 17.5 12.5 17.7239 12.5 18Z" stroke="#1A1A1A"/>
<path d="M9.85303 6.56001C11.833 5.68501 14.395 5.78901 15.27 7.20501C16.145 8.62101 15.541 10.268 14.041 11.539C12.541 12.81 12 13.5 12 14.5" stroke="#1A1A1A" stroke-width="1.5" stroke-miterlimit="10" stroke-linecap="square"/>
</svg>
