<svg id="Layer_1" data-name="Layer 1" xmlns="http://www.w3.org/2000/svg" viewBox="0 0 24 24"><defs><style>.cls-1,.cls-2{fill:none;stroke:#000;stroke-miterlimit:10;}.cls-1{stroke-width:0.75px;}.cls-2{stroke-width:0.5px;}</style></defs><path class="cls-1" d="M5.73,8.81h0a1.87,1.87,0,0,1,1.87,1.87v1.76a0,0,0,0,1,0,0H3.86a0,0,0,0,1,0,0V10.68A1.87,1.87,0,0,1,5.73,8.81Z"/><path class="cls-1" d="M3.55,12.43H7.91a.25.25,0,0,1,.25.25V13a.69.69,0,0,1-.69.69H4A.69.69,0,0,1,3.3,13v-.36A.25.25,0,0,1,3.55,12.43Z"/><line class="cls-1" x1="5.73" y1="13.61" x2="5.73" y2="15.18"/><path class="cls-1" d="M11.92,8.81h0a1.87,1.87,0,0,1,1.87,1.87v1.76a0,0,0,0,1,0,0H10.06a0,0,0,0,1,0,0V10.68a1.87,1.87,0,0,1,1.87-1.87Z"/><path class="cls-1" d="M9.74,12.43H14.1a.25.25,0,0,1,.25.25V13a.69.69,0,0,1-.69.69H10.18A.69.69,0,0,1,9.49,13v-.36A.25.25,0,0,1,9.74,12.43Z"/><line class="cls-1" x1="11.92" y1="13.61" x2="11.92" y2="15.18"/><path class="cls-1" d="M18.12,8.81h0A1.87,1.87,0,0,1,20,10.68v1.76a0,0,0,0,1,0,0H16.25a0,0,0,0,1,0,0V10.68a1.87,1.87,0,0,1,1.87-1.87Z"/><path class="cls-1" d="M15.94,12.43H20.3a.25.25,0,0,1,.25.25V13a.69.69,0,0,1-.69.69H16.38a.69.69,0,0,1-.69-.69v-.36A.25.25,0,0,1,15.94,12.43Z"/><line class="cls-1" x1="18.12" y1="13.61" x2="18.12" y2="15.18"/><line class="cls-1" x1="3.3" y1="15.18" x2="20.55" y2="15.18"/><line class="cls-2" x1="6.41" y1="10.09" x2="5.05" y2="11.46"/><line class="cls-2" x1="5.05" y1="10.09" x2="6.41" y2="11.46"/><line class="cls-2" x1="18.8" y1="10.09" x2="17.44" y2="11.46"/><line class="cls-2" x1="17.44" y1="10.09" x2="18.8" y2="11.46"/></svg>