<svg xmlns="http://www.w3.org/2000/svg" viewBox="0 0 16.32 14.86"><defs><style>.cls-1{fill:none;stroke:#000;stroke-miterlimit:10;stroke-width:0.75px;}</style></defs><g id="Layer_2" data-name="Layer 2"><g id="Layer_1-2" data-name="Layer 1"><circle class="cls-1" cx="5.41" cy="3.86" r="3.49"/><path class="cls-1" d="M5.41,7.43h0a5,5,0,0,1,5,5v2a0,0,0,0,1,0,0H.37a0,0,0,0,1,0,0v-2a5,5,0,0,1,5-5Z"/><path class="cls-1" d="M15.94,5.34a1,1,0,0,1-1,1H10.14L11,5V3a1,1,0,0,1,1-1h2.9a1,1,0,0,1,1,1Z"/><path d="M13.27,4.7l-.11,0a.46.46,0,1,0,.46.46h0V4.62l-.35-.35Z"/><path d="M13.62,3.11l.09.07a.9.9,0,0,1,.24.59h.35A1.23,1.23,0,0,0,14,2.93a.73.73,0,0,0-.5-.22h-.18v.49l.35.35Z"/><polygon points="12.53 2.76 12.29 3.01 14.35 5.07 14.6 4.83 12.53 2.76"/></g></g></svg>