<svg xmlns="http://www.w3.org/2000/svg" viewBox="0 0 18.76 5.15"><defs><style>.cls-1{fill:none;stroke:#000;stroke-miterlimit:10;stroke-width:0.75px;}</style></defs><g id="Layer_2" data-name="Layer 2"><g id="Layer_1-2" data-name="Layer 1"><path d="M6.15,3.79V1.58A1.26,1.26,0,0,1,7.46.14,1.06,1.06,0,0,1,8.68,1.3v.08H7.87V1.3c0-.34-.15-.47-.39-.47S7,1,7,1.58v.89A.82.82,0,0,1,7.79,2c.53,0,1,.34,1,1.12v.79A1.11,1.11,0,0,1,7.48,5.15,1.2,1.2,0,0,1,6.15,3.79Zm1.74.15V3.17c0-.37-.13-.54-.43-.54S7,2.79,7,3.19v.68c0,.45.16.62.45.62S7.89,4.3,7.89,3.94Z"/><path d="M9.59,2.1H9.27V1.51h.32V.93a.85.85,0,0,1,1-.93h.35V.62h-.2c-.24,0-.33.1-.33.33v.56h.52V2.1h-.52v3H9.59Z"/><path d="M12.21.81v.7h.52V2.1h-.52v2c0,.23.09.31.3.31h.21v.63h-.36c-.67,0-.94-.28-.94-.89V2.1H11.1V1.51h.32V.81Z"/><line class="cls-1" x1="4.81" y1="2.57" x2="0.04" y2="2.57"/><line class="cls-1" x1="0.38" y1="0.82" x2="0.38" y2="4.33"/><line class="cls-1" x1="13.95" y1="2.57" x2="18.72" y2="2.57"/><line class="cls-1" x1="18.38" y1="0.82" x2="18.38" y2="4.33"/></g></g></svg>