<svg xmlns="http://www.w3.org/2000/svg" viewBox="0 0 15.7 12.06"><defs><style>.cls-1,.cls-2{fill:none;stroke:#000;stroke-miterlimit:10;stroke-width:0.75px;}.cls-2{stroke-linecap:round;}</style></defs><g id="Layer_2" data-name="Layer 2"><g id="Layer_1-2" data-name="Layer 1"><path class="cls-1" d="M5.75,4.61,7.28,1.39h4.8l-.9,2.3H8.47l-.89,1.9H6.37A.68.68,0,0,1,5.75,4.61Z"/><path class="cls-1" d="M.21,9.52A6.14,6.14,0,0,0,2.47,6.88,3.8,3.8,0,0,1,6,4.15"/><path class="cls-2" d="M6.56,5.59h1.3a.65.65,0,0,1,.66.65h0a.66.66,0,0,1-.66.66H6"/><path class="cls-2" d="M6.38,6.9h.71a.66.66,0,0,1,.66.65h0a.67.67,0,0,1-.66.66H5.26"/><path class="cls-2" d="M5.82,8.21h.72a.65.65,0,0,1,.65.65h0a.66.66,0,0,1-.65.66H4.71"/><path class="cls-1" d="M5,9.52h.72a.65.65,0,0,1,.65.65h0a.66.66,0,0,1-.65.66H4.18a7.71,7.71,0,0,0-3,.9"/><polyline class="cls-1" points="9.25 1.48 9.53 0.92 8.34 1.08 8.13 1.49"/><line class="cls-1" x1="10.54" y1="1.39" x2="9.6" y2="3.69"/><line class="cls-1" x1="13.56" y1="3.46" x2="15.16" y2="4.38"/><line class="cls-1" x1="13.86" y1="2.35" x2="15.7" y2="2.35"/><line class="cls-1" x1="13.56" y1="1.25" x2="15.16" y2="0.32"/></g></g></svg>