<svg xmlns="http://www.w3.org/2000/svg" viewBox="0 0 16.32 14.86"><defs><style>.cls-1,.cls-2,.cls-3,.cls-4{fill:none;stroke-miterlimit:10;}.cls-1,.cls-2,.cls-4{stroke:#000;}.cls-1,.cls-3{stroke-width:0.75px;}.cls-2{stroke-width:0.35px;}.cls-3{stroke:#fff;}.cls-4{stroke-width:0.35px;}</style></defs><g id="Layer_2" data-name="Layer 2"><g id="Layer_1-2" data-name="Layer 1"><circle class="cls-1" cx="5.41" cy="3.86" r="3.49"/><path class="cls-1" d="M5.41,7.43h0a5,5,0,0,1,5,5v2a0,0,0,0,1,0,0H.37a0,0,0,0,1,0,0v-2a5,5,0,0,1,5-5Z"/><path class="cls-1" d="M15.94,5.34a1,1,0,0,1-1,1H10.14L11,5V3a1,1,0,0,1,1-1h2.9a1,1,0,0,1,1,1Z"/><circle cx="13.16" cy="5.14" r="0.46"/><path class="cls-2" d="M13.44,5.14V2.89c.36,0,.68.44.68.88"/><line class="cls-3" x1="14.47" y1="4.95" x2="12.41" y2="2.89"/><line class="cls-4" x1="14.47" y1="4.95" x2="12.41" y2="2.89"/></g></g></svg>