<svg xmlns="http://www.w3.org/2000/svg" viewBox="0 0 16.32 14.86"><defs><style>.cls-1,.cls-2{fill:none;stroke:#000;stroke-miterlimit:10;}.cls-1{stroke-width:0.75px;}.cls-2{stroke-width:0.5px;}</style></defs><g id="Layer_2" data-name="Layer 2"><g id="Layer_1-2" data-name="Layer 1"><circle class="cls-1" cx="5.41" cy="3.86" r="3.49"/><path class="cls-1" d="M5.41,7.43h0a5,5,0,0,1,5,5v2a0,0,0,0,1,0,0H.38a0,0,0,0,1,0,0v-2a5,5,0,0,1,5-5Z"/><path class="cls-1" d="M15.94,5.34a1,1,0,0,1-1,1H10.14L11,5V3a1,1,0,0,1,1-1h2.9a1,1,0,0,1,1,1Z"/><polyline class="cls-2" points="12.46 4.22 13.02 4.86 14.55 3.48"/></g></g></svg>