<svg xmlns="http://www.w3.org/2000/svg" viewBox="0 0 12.55 11.1"><defs><style>.cls-1,.cls-2{fill:none;stroke:#000;stroke-miterlimit:10;stroke-width:0.75px;}.cls-2{stroke-linecap:round;}</style></defs><g id="Layer_2" data-name="Layer 2"><g id="Layer_1-2" data-name="Layer 1"><path class="cls-1" d="M5.67,3.59,7.2.38H12l-.9,2.29H8.39L7.5,4.57H6.29A.68.68,0,0,1,5.67,3.59Z"/><path class="cls-2" d="M.38,8.33a5.27,5.27,0,0,0,2-2.46A3.79,3.79,0,0,1,5.87,3.14"/><path class="cls-2" d="M6.48,4.57h1.3a.66.66,0,0,1,.66.66h0a.66.66,0,0,1-.66.65H6"/><path class="cls-2" d="M6.3,5.88H7a.67.67,0,0,1,.66.66h0A.66.66,0,0,1,7,7.19H5.18"/><path class="cls-2" d="M5.74,7.19h.71a.66.66,0,0,1,.66.66h0a.65.65,0,0,1-.66.65H4.62"/><path class="cls-2" d="M4.94,8.5h.72a.66.66,0,0,1,.65.66h0a.65.65,0,0,1-.65.65H4.1a5,5,0,0,0-3,.91"/><polyline class="cls-1" points="6.71 1.19 6.21 1.19 5.91 1.78 6.43 1.78"/><line class="cls-1" x1="10.46" y1="0.38" x2="9.52" y2="2.67"/></g></g></svg>