<svg id="Layer_1" data-name="Layer 1" xmlns="http://www.w3.org/2000/svg" viewBox="0 0 24 24"><defs><style>.cls-1{fill:none;stroke:#000;stroke-miterlimit:10;stroke-width:0.75px;}</style></defs><circle class="cls-1" cx="9.84" cy="8.13" r="3.49"/><path class="cls-1" d="M9.84,11.7h0a5,5,0,0,1,5,5v2a0,0,0,0,1,0,0H4.8a0,0,0,0,1,0,0v-2a5,5,0,0,1,5-5Z"/><path class="cls-1" d="M20.37,9.62a1,1,0,0,1-1,1H14.57l.87-1.32V7.26a1,1,0,0,1,1-1h2.9a1,1,0,0,1,1,1Z"/><path d="M17.69,9l-.1,0a.46.46,0,1,0,.45.46h0V8.9l-.35-.35Z"/><path d="M18,7.39a.22.22,0,0,1,.09.07.83.83,0,0,1,.24.58h.35a1.18,1.18,0,0,0-.34-.83.69.69,0,0,0-.5-.22h-.19v.5l.35.35Z"/><polygon points="16.96 7.04 16.71 7.28 18.78 9.35 19.02 9.1 16.96 7.04"/></svg>