<svg id="Layer_1" data-name="Layer 1" xmlns="http://www.w3.org/2000/svg" viewBox="0 0 24 24"><defs><style>.cls-1,.cls-2{fill:none;stroke:#000;stroke-miterlimit:10;}.cls-1{stroke-width:0.75px;}.cls-2{stroke-width:0.5px;}</style></defs><circle class="cls-1" cx="10.86" cy="8.13" r="3.49"/><path class="cls-1" d="M10.86,11.7h0a5,5,0,0,1,5,5v2a0,0,0,0,1,0,0H5.82a0,0,0,0,1,0,0v-2a5,5,0,0,1,5-5Z"/><path class="cls-1" d="M21.39,9.62a1,1,0,0,1-1,1H15.59l.87-1.32V7.26a1,1,0,0,1,1-1h2.9a1,1,0,0,1,1,1Z"/><polyline class="cls-2" points="17.9 8.49 18.46 9.13 19.99 7.75"/></svg>