<svg xmlns="http://www.w3.org/2000/svg" viewBox="0 0 17.73 10.46"><defs><style>.cls-1{fill:none;stroke:#000;stroke-miterlimit:10;stroke-width:0.75px;}</style></defs><g id="Layer_2" data-name="Layer 2"><g id="Layer_1-2" data-name="Layer 1"><path d="M8.86.75a5.13,5.13,0,0,1,2.31.55l2.94,1.46v5a.88.88,0,0,1-.5.8A10.61,10.61,0,0,1,8.86,9.71,10.65,10.65,0,0,1,4.1,8.58a.89.89,0,0,1-.49-.8v-5L6.54,1.3A5.21,5.21,0,0,1,8.86.75m0-.75A5.87,5.87,0,0,0,6.21.63L2.86,2.3V7.78a1.66,1.66,0,0,0,.91,1.48h0a11.36,11.36,0,0,0,5.09,1.2,11.35,11.35,0,0,0,5.08-1.2h0a1.67,1.67,0,0,0,.92-1.48V2.3L11.51.63A5.93,5.93,0,0,0,8.86,0Z"/><path class="cls-1" d="M14.16,2.72l1.43-.85c.75-.42,1.77,0,1.77.77V5c0,1.67-1,2.15-2.74,3.07l-.25.11"/><path class="cls-1" d="M3.57,2.72,2.15,1.87c-.76-.42-1.77,0-1.77.77V5c0,1.67,1,2.15,2.73,3.07l.26.11"/><line class="cls-1" x1="5.93" y1="5.27" x2="11.92" y2="5.27"/><path class="cls-1" d="M5.93,3.61l1.63-.27a8,8,0,0,1,2.63,0l1.73.28"/><path class="cls-1" d="M5.93,6.93l1,.16a11.74,11.74,0,0,0,4,0l1-.16"/></g></g></svg>