<svg width="124" height="28" viewBox="0 0 124 28" fill="none" xmlns="http://www.w3.org/2000/svg">
<rect x="0.314453" y="7" width="16.4245" height="13" rx="2" fill="#646469"/>
<path d="M8.52673 14C9.86789 14 10.8102 12.9346 11.3576 11.8347C11.9355 10.6736 12.2642 9.13973 12.2642 7.5C12.2642 5.86027 11.9355 4.32636 11.3576 3.16534C10.8102 2.06544 9.86789 1 8.52673 1C7.18557 1 6.24327 2.06544 5.69583 3.16534C5.11798 4.32636 4.78931 5.86027 4.78931 7.5C4.78931 9.13973 5.11798 10.6736 5.69583 11.8347C6.24327 12.9346 7.18557 14 8.52673 14Z" stroke="#646469" stroke-width="2"/>
<path d="M30.3725 19.144C32.5805 19.144 33.8285 17.86 33.8285 16.288C33.8285 14.428 32.7125 13.864 30.5405 13.624C29.4725 13.48 29.2085 13.264 29.2085 12.784C29.2085 12.352 29.5445 12.052 30.2045 12.052C30.8765 12.052 31.2245 12.364 31.3085 12.976H33.5885C33.4325 11.164 32.2685 10.3 30.2045 10.3C28.1525 10.3 26.8805 11.428 26.8805 12.976C26.8805 14.704 27.6965 15.424 30.1205 15.712C31.1525 15.868 31.4765 16.012 31.4765 16.54C31.4765 17.044 31.0805 17.392 30.3725 17.392C29.3525 17.392 29.0765 16.888 29.0165 16.276H26.6765C26.7485 18.136 27.9725 19.144 30.3725 19.144ZM37.9132 19.144C39.8092 19.144 40.9012 18.34 41.0932 16.924H39.0772C38.9932 17.344 38.6932 17.668 37.9852 17.668C37.2172 17.668 36.7372 17.188 36.6772 16.36H41.0932V15.796C41.0932 13.54 39.6172 12.556 37.9012 12.556C36.0052 12.556 34.5052 13.828 34.5052 15.844V15.94C34.5052 17.992 35.9452 19.144 37.9132 19.144ZM36.7012 15.148C36.8092 14.392 37.2532 13.972 37.9012 13.972C38.5972 13.972 38.9692 14.392 39.0052 15.148H36.7012ZM44.9771 19.144C47.0051 19.144 48.0731 18.112 48.1331 16.528H46.2011C46.1291 17.212 45.7091 17.572 45.1091 17.572C44.2931 17.572 43.8731 17.008 43.8731 15.916V15.82C43.8731 14.764 44.3171 14.224 45.0731 14.224C45.6971 14.224 45.9851 14.548 46.0811 15.136H48.0971C47.9771 13.228 46.5611 12.556 45.0251 12.556C43.1771 12.556 41.6771 13.756 41.6771 15.844V15.94C41.6771 18.052 43.1051 19.144 44.9771 19.144ZM51.0732 19.144C52.1172 19.144 52.7292 18.676 53.0652 18.028V19H55.2132V12.724H53.0652V16.336C53.0652 17.14 52.6452 17.524 51.9972 17.524C51.3852 17.524 51.1092 17.176 51.1092 16.468V12.724H48.9612V16.816C48.9612 18.4 49.8612 19.144 51.0732 19.144ZM56.4857 19H58.6337V16.024C58.6337 15.016 59.3537 14.608 60.6617 14.644V12.64C59.6897 12.628 59.0297 13.036 58.6337 13.972V12.724H56.4857V19ZM64.632 19.144C66.528 19.144 67.62 18.34 67.812 16.924H65.796C65.712 17.344 65.412 17.668 64.704 17.668C63.936 17.668 63.456 17.188 63.396 16.36H67.812V15.796C67.812 13.54 66.336 12.556 64.62 12.556C62.724 12.556 61.224 13.828 61.224 15.844V15.94C61.224 17.992 62.664 19.144 64.632 19.144ZM63.42 15.148C63.528 14.392 63.972 13.972 64.62 13.972C65.316 13.972 65.688 14.392 65.724 15.148H63.42ZM71.291 19H73.739V16.108H74.663C76.787 16.108 77.999 15.136 77.999 13.336V13.288C77.999 11.464 76.907 10.42 74.555 10.42H71.291V19ZM73.739 14.428V12.268H74.459C75.227 12.268 75.659 12.568 75.659 13.3V13.348C75.659 14.056 75.239 14.428 74.447 14.428H73.739ZM80.4802 19.144C81.4882 19.144 82.0402 18.724 82.3402 18.268V19H84.4282V14.932C84.4282 13.264 83.3242 12.556 81.5962 12.556C79.8802 12.556 78.6922 13.3 78.5962 14.812H80.6122C80.6602 14.416 80.8762 14.068 81.4642 14.068C82.1482 14.068 82.2922 14.464 82.2922 15.064V15.208H81.6922C79.6042 15.208 78.3562 15.784 78.3562 17.26C78.3562 18.592 79.3522 19.144 80.4802 19.144ZM81.2242 17.692C80.7202 17.692 80.4802 17.464 80.4802 17.104C80.4802 16.588 80.8642 16.42 81.7282 16.42H82.2922V16.804C82.2922 17.344 81.8362 17.692 81.2242 17.692ZM86.3668 21.1H88.4188L91.7788 12.724H89.7268L88.5268 16.072L87.2308 12.724H84.9028L87.4108 18.364L86.3668 21.1ZM92.5092 19H94.6572V15.364C94.6572 14.68 95.0412 14.308 95.6172 14.308C96.1092 14.308 96.4212 14.62 96.4212 15.256V19H98.5452V15.364C98.5452 14.68 98.9292 14.308 99.5052 14.308C99.9972 14.308 100.309 14.62 100.309 15.256V19H102.457V14.896C102.457 13.324 101.593 12.556 100.405 12.556C99.6132 12.556 98.8692 12.868 98.3292 13.6C98.0292 12.916 97.4532 12.556 96.6252 12.556C95.6532 12.556 94.9932 13.084 94.6572 13.684V12.724H92.5092V19ZM106.749 19.144C108.645 19.144 109.737 18.34 109.929 16.924H107.913C107.829 17.344 107.529 17.668 106.821 17.668C106.053 17.668 105.573 17.188 105.513 16.36H109.929V15.796C109.929 13.54 108.453 12.556 106.737 12.556C104.841 12.556 103.341 13.828 103.341 15.844V15.94C103.341 17.992 104.781 19.144 106.749 19.144ZM105.537 15.148C105.645 14.392 106.089 13.972 106.737 13.972C107.433 13.972 107.805 14.392 107.841 15.148H105.537ZM110.849 19H112.997V15.484C112.997 14.68 113.429 14.296 114.065 14.296C114.689 14.296 114.965 14.644 114.965 15.352V19H117.113V14.92C117.113 13.312 116.273 12.556 115.061 12.556C114.017 12.556 113.333 13.084 112.997 13.732V12.724H110.849V19ZM120.833 19.144C121.337 19.144 121.745 19.036 122.021 18.964V17.332C121.829 17.404 121.649 17.44 121.409 17.44C121.001 17.44 120.773 17.236 120.773 16.78V14.188H122.009V12.724H120.773V11.416H118.625V12.724H117.869V14.188H118.625V16.984C118.625 18.46 119.417 19.144 120.833 19.144Z" fill="#646469"/>
</svg>
