<svg width="24" height="24" viewBox="0 0 24 24" fill="none" xmlns="http://www.w3.org/2000/svg">
<path d="M8.10001 10.5L16.9 5.5" stroke="#1A1A1A" stroke-width="1.5" stroke-miterlimit="10"/>
<path d="M8.10001 13.5L16.9 18.5" stroke="#1A1A1A" stroke-width="1.5" stroke-miterlimit="10"/>
<path d="M5.5 15C7.15685 15 8.5 13.6569 8.5 12C8.5 10.3431 7.15685 9 5.5 9C3.84315 9 2.5 10.3431 2.5 12C2.5 13.6569 3.84315 15 5.5 15Z" stroke="#1A1A1A" stroke-width="1.5" stroke-miterlimit="10" stroke-linecap="square"/>
<path d="M19.5 7C21.1569 7 22.5 5.65685 22.5 4C22.5 2.34315 21.1569 1 19.5 1C17.8431 1 16.5 2.34315 16.5 4C16.5 5.65685 17.8431 7 19.5 7Z" stroke="#1A1A1A" stroke-width="1.5" stroke-miterlimit="10" stroke-linecap="square"/>
<path d="M19.5 23C21.1569 23 22.5 21.6569 22.5 20C22.5 18.3431 21.1569 17 19.5 17C17.8431 17 16.5 18.3431 16.5 20C16.5 21.6569 17.8431 23 19.5 23Z" stroke="#1A1A1A" stroke-width="1.5" stroke-miterlimit="10" stroke-linecap="square"/>
</svg>
