<svg width="16" height="16" viewBox="0 0 16 16" fill="none" xmlns="http://www.w3.org/2000/svg">
<path d="M2.66663 14.6666C3.7712 14.6666 4.66663 13.7712 4.66663 12.6666C4.66663 11.5621 3.7712 10.6666 2.66663 10.6666C1.56206 10.6666 0.666626 11.5621 0.666626 12.6666C0.666626 13.7712 1.56206 14.6666 2.66663 14.6666Z" fill="white"/>
<path d="M14.6666 14.6666H12C12 8.41728 6.91597 3.33329 0.666626 3.33329V0.666626C8.38603 0.666626 14.6666 6.9469 14.6666 14.6666Z" fill="white"/>
<path d="M9.99996 14.6666H7.33329C7.33329 10.9905 4.34241 7.99992 0.666626 7.99992V5.33325C5.81311 5.33325 9.99996 9.5201 9.99996 14.6666Z" fill="white"/>
</svg>
