<svg width="24" height="24" viewBox="0 0 24 24" fill="none" xmlns="http://www.w3.org/2000/svg">
<path d="M12 23C9.82441 23 7.69767 22.3549 5.88873 21.1462C4.07979 19.9375 2.66989 18.2195 1.83733 16.2095C1.00477 14.1995 0.786929 11.9878 1.21137 9.85401C1.6358 7.72022 2.68345 5.76021 4.22183 4.22183C5.76021 2.68345 7.72022 1.6358 9.85401 1.21137C11.9878 0.786929 14.1995 1.00477 16.2095 1.83733C18.2195 2.66989 19.9375 4.07979 21.1462 5.88873C22.3549 7.69767 23 9.82441 23 12" stroke="#1A1A1A" stroke-width="1.5" stroke-miterlimit="10" stroke-linecap="square"/>
<path d="M19.5 16.0169L20.4869 18.017L20.5916 18.2292L20.8258 18.2632L23.0329 18.5839L21.4359 20.1407L21.2665 20.3059L21.3064 20.539L21.6833 22.7371L19.7094 21.6991L19.5 21.5889L19.2905 21.6991L17.3166 22.7371L17.6935 20.539L17.7335 20.3059L17.5641 20.1407L15.967 18.5839L18.1742 18.2632L18.4083 18.2292L18.513 18.017L19.5 16.0169Z" fill="#1A1A1A" stroke="#1A1A1A" stroke-width="0.899996"/>
<path d="M9 8L16 12L9 16V8Z" stroke="#1A1A1A" stroke-width="1.5" stroke-miterlimit="10" stroke-linecap="square"/>
</svg>
