<svg width="46" height="30" viewBox="0 0 46 30" fill="none" xmlns="http://www.w3.org/2000/svg">
<path d="M46 27.3085C46 28.259 45.2397 29.0193 44.2893 29.0193H1.71074C0.760329 29.0193 0 28.259 0 27.3085V1.71075C0 0.760334 0.760329 0 1.71074 0H44.2893C45.2397 0 46 0.760334 46 1.71075V27.3085Z" fill="black"/>
<path d="M17.4876 8.42702L12.3554 20.6557H8.99723L6.46279 10.8981C6.33607 10.3279 6.14599 10.0744 5.70246 9.82096C4.94213 9.4408 3.67491 8.99727 2.59778 8.80719L2.66114 8.42702H8.04681C8.74378 8.42702 9.37739 8.87055 9.50412 9.69424L10.8347 16.7907L14.1295 8.49038H17.4876V8.42702ZM30.6033 16.6639C30.6033 13.4325 26.168 13.2425 26.168 11.8485C26.168 11.405 26.6116 10.9615 27.4986 10.8347C27.9421 10.7714 29.2094 10.708 30.6033 11.405L31.1735 8.80719C30.4132 8.55374 29.4628 8.23694 28.1956 8.23694C25.0909 8.23694 22.8733 9.88432 22.8733 12.292C22.8733 14.0661 24.4573 15.0166 25.6611 15.5868C26.865 16.157 27.3085 16.5372 27.3085 17.1075C27.3085 17.9312 26.3581 18.3113 25.4077 18.3113C23.8237 18.3113 22.8733 17.8678 22.1763 17.551L21.606 20.2121C22.3664 20.529 23.697 20.8458 25.0909 20.8458C28.3857 20.8458 30.5399 19.1984 30.6033 16.6639ZM38.8402 20.6557H41.7548L39.2204 8.42702H36.4959C35.8622 8.42702 35.3554 8.80719 35.1653 9.31408L30.4132 20.6557H33.708L34.3416 18.8182H38.3967L38.8402 20.6557ZM35.292 16.3471L36.9394 11.7851L37.8898 16.3471H35.292ZM21.9862 8.42702L19.3884 20.6557H16.2204L18.8182 8.42702H21.9862Z" fill="white"/>
</svg>
