<svg width="24" height="24" viewBox="0 0 24 24" fill="none" xmlns="http://www.w3.org/2000/svg">
<path d="M11.3469 5V4C11.3469 3.46957 11.1361 2.96086 10.7611 2.58579C10.386 2.21071 9.8773 2 9.34686 2C8.81643 2 8.30772 2.21071 7.93265 2.58579C7.55758 2.96086 7.34686 3.46957 7.34686 4V13.523C7.34676 13.6863 7.30665 13.8471 7.23005 13.9914C7.15344 14.1357 7.04266 14.2589 6.90741 14.3505C6.77215 14.442 6.61652 14.4991 6.45413 14.5166C6.29175 14.5341 6.12754 14.5116 5.97586 14.451L3.43286 13.434C3.11054 13.305 2.75745 13.2735 2.41738 13.3434C2.07731 13.4132 1.76523 13.5814 1.51986 13.827V13.827C1.20152 14.1451 1.01603 14.5723 1.00099 15.022C0.985951 15.4717 1.14249 15.9104 1.43886 16.249L4.65686 19.927C5.50173 20.8924 6.54323 21.6661 7.71154 22.1961C8.87984 22.7261 10.148 23.0002 11.4309 23H13.3469C15.7338 23 18.023 22.0518 19.7108 20.364C21.3987 18.6761 22.3469 16.3869 22.3469 14V5.5C22.3469 5.10218 22.1888 4.72064 21.9075 4.43934C21.6262 4.15804 21.2447 4 20.8469 4C20.449 4 20.0675 4.15804 19.7862 4.43934C19.5049 4.72064 19.3469 5.10218 19.3469 5.5V6" stroke="black" stroke-width="1.5" stroke-miterlimit="10" stroke-linecap="square"/>
<path d="M11.3469 11V3C11.3469 2.46957 11.5576 1.96086 11.9326 1.58579C12.3077 1.21071 12.8164 1 13.3469 1C13.8773 1 14.386 1.21071 14.7611 1.58579C15.1361 1.96086 15.3469 2.46957 15.3469 3V11" stroke="black" stroke-width="1.5" stroke-miterlimit="10" stroke-linecap="square"/>
<path d="M15.3469 5V4C15.3469 3.46957 15.5576 2.96086 15.9326 2.58579C16.3077 2.21071 16.8164 2 17.3469 2V2C17.8773 2 18.386 2.21071 18.7611 2.58579C19.1361 2.96086 19.3469 3.46957 19.3469 4V11" stroke="black" stroke-width="1.5" stroke-miterlimit="10" stroke-linecap="square"/>
</svg>
