<svg width="214" height="139" viewBox="0 0 214 139" fill="none" xmlns="http://www.w3.org/2000/svg">
<path fill-rule="evenodd" clip-rule="evenodd" d="M44.4 25.4C44.4 21.7 46.4 19.9 49.3 19.9C52.2 19.9 53.4 21.5 53.4 24.8V41.6H63.3V22.8C63.3 15.4 59.4 11.9 53.8 11.9C49 11.9 45.8 14.3 44.3 17.3V0H34.4V41.6H44.3V25.4H44.4ZM21.6 41.6H10.2V10.8H0V2.10001H31.9V10.8H21.6V41.6ZM57.8 107.7C48.8 107.7 41.9 113.6 41.9 122.9V123.3C41.9 132.6 48.8 138.1 57.7 138.1C66.6 138.1 73.5 132.5 73.5 123.1V122.7C73.5 113.4 66.7 107.7 57.8 107.7ZM63.5 123.1C63.5 127.9 61.5 130.7 57.8 130.7C54 130.7 52 128 52 123V122.6C52 117.7 54 115.1 57.8 115.1C61.6 115.1 63.5 117.8 63.5 122.7V123.1ZM122.6 118.8C119.1 118.4 117.7 117.8 117.7 116.4C117.7 115.1 118.8 114.1 121 114.1C123.3 114.1 124.3 115 124.7 117H133.7C133 110.1 128.1 107.7 120.9 107.7C114.2 107.7 108.5 110.8 108.5 117.2C108.5 123.2 111.8 125.5 119.5 126.5C123.5 127.1 124.9 127.7 124.9 129.1C124.9 130.5 123.8 131.5 121.4 131.5C118.6 131.5 117.6 130.3 117.3 128.2H108.2C108.4 134.6 113.2 138 121.5 138C129.5 138 134.6 134.9 134.6 128C134.5 121.9 130.6 119.8 122.6 118.8ZM27 112.9H14V97.8H2.59999V137.4H14V121.8H27V137.4H38.4V97.8H27V112.9ZM90.5 130.6C93.5 130.6 95.4 128.8 95.4 125.1V108.5H105.3V137.4H95.4V132.9C93.8 135.8 91 138 86.2 138C80.6 138 76.5 134.6 76.5 127.3V108.4H86.4V125.7C86.4 129 87.7 130.6 90.5 130.6ZM204 60.4V64.5C202.3 61.6 199.6 59.6 195 59.6C188.2 59.6 182.7 65 182.7 73.5V74C182.7 82.9 188.2 87.9 195 87.9C199.3 87.9 202.5 85.4 204 82.6V87C204 90.6 202.2 93.1 197.9 93.1C194.3 93.1 193 91.4 192.6 89.3H182.8C183.6 95.9 188.1 100 198 100C208.3 100 214 95.5 214 86.8V60.4H204ZM204.3 73.9C204.3 78 202.1 80.5 198.5 80.5C195 80.5 192.9 78 192.9 74V73.6C192.9 69.6 194.9 67 198.6 67C202.3 67 204.3 69.5 204.3 73.5V73.9ZM136.6 122.9C136.6 113.6 143.6 107.7 152.3 107.7C160.2 107.7 167 112.2 167.1 122.7V125.3H146.7C146.9 129.1 149.2 131.3 152.7 131.3C155.9 131.3 157.3 129.8 157.7 127.9H167C166.1 134.4 161 138.1 152.3 138.1C143.2 138.1 136.6 132.8 136.6 123.3V122.9ZM152.3 114.2C149.3 114.2 147.3 116.1 146.8 119.6H157.4C157.2 116.1 155.5 114.2 152.3 114.2ZM170.5 59.8C165.7 59.8 162.5 62.2 161 65.2V60.6H151.1V89.5H161V73.3C161 69.6 163 67.8 165.9 67.8C168.8 67.8 170 69.4 170 72.7V89.5H179.9V70.7C179.9 63.3 176.1 59.8 170.5 59.8ZM129 90.2C122.5 90.2 118.8 87 118.8 80.2V67.3H114.9V60.6H118.9V54.6H128.8V60.6H147.3V89.5H137.4V67.3H128.8V79.3C128.8 81.4 129.8 82.3 131.7 82.3C132.5 82.3 133.1 82.2 133.7 82V89.6C132.4 89.9 130.9 90.2 129 90.2ZM81.1 74.7C81.1 64.3 74.3 59.8 66.4 59.8C57.7 59.8 50.7 65.7 50.7 75V75.4C50.7 84.9 57.3 90.2 66.4 90.2C75.1 90.2 80.2 86.5 81.1 80H71.8C71.4 81.9 70 83.4 66.8 83.4C63.3 83.4 61 81.2 60.8 77.4H81.2V74.7H81.1ZM60.8 71.8C61.1 68.2 63.3 66.2 66.3 66.2C69.5 66.2 71.4 68.2 71.4 71.8H60.8ZM96.7 32.1C95.8 38.6 90.7 42.3 82 42.3C72.9 42.3 66.3 37 66.4 27.6V27.2C66.4 17.9 73.4 12 82.1 12C90 12 96.8 16.5 96.8 26.9V29.5H76.4C76.6 33.3 78.9 35.5 82.4 35.5C85.6 35.5 87 34 87.4 32.1H96.7ZM87 23.9C86.8 20.4 85.1 18.5 81.9 18.5C78.9 18.5 76.9 20.4 76.4 23.9H87ZM142.2 57.8C145.3 57.8 147.7 55.6 147.7 52.7C147.7 49.8 145.3 47.6 142.2 47.6C139.1 47.6 136.8 49.8 136.8 52.7C136.7 55.7 139.1 57.8 142.2 57.8ZM83.8 75.4V75C83.8 65.7 90.7 59.8 99.6 59.9C107.5 59.9 114.3 64.4 114.3 74.8V77.4H93.9C94.1 81.2 96.4 83.4 99.9 83.4C103.1 83.4 104.5 81.9 104.9 80H114.2C113.3 86.5 108.2 90.2 99.5 90.2C90.4 90.2 83.8 84.9 83.8 75.4ZM104.6 71.7C104.4 68.2 102.7 66.3 99.5 66.3C96.5 66.3 94.4 68.3 93.9 71.7H104.6ZM2.59999 50H17.4L25 71L32.6 50H47.1V89.5H35.8V64.9L26.1 89.5H22.3L12.8 64.9V89.5H2.59999V50Z" fill="#1A1A1A"/>
</svg>
