<svg width="69" height="49" viewBox="0 0 69 49" fill="none" xmlns="http://www.w3.org/2000/svg">
<path fill-rule="evenodd" clip-rule="evenodd" d="M67.562 7.54116C66.772 4.5775 64.4336 2.23911 61.4588 1.438C56.0802 0 34.5003 0 34.5003 0C34.5003 0 12.9309 0 7.54116 1.438C4.5775 2.22802 2.23911 4.56641 1.438 7.54116C0 12.9198 0 24.1491 0 24.1491C0 24.1491 0 35.378 1.438 40.7566C2.22855 43.7208 4.56641 46.0586 7.54116 46.8597C12.9309 48.2977 34.5003 48.2977 34.5003 48.2977C34.5003 48.2977 56.0802 48.2977 61.4588 46.8597C64.423 46.0697 66.7609 43.7313 67.562 40.7566C69 35.378 69 24.1491 69 24.1491C69 24.1491 69 12.9198 67.562 7.54116Z" fill="#FE0500"/>
<path fill-rule="evenodd" clip-rule="evenodd" d="M27.6065 34.5005L45.5315 24.1494L27.6065 13.7982V34.5005Z" fill="#FFFFFE"/>
</svg>
